<svg viewBox="0 0 200 200" xmlns="http://www.w3.org/2000/svg" preserveAspectRatio="xMidYMid meet" aria-hidden="true">
<!-- selvedge-straight-denim: straight leg with a turned-up cuff, zoomed on the selvedge line along the outseam -->
  <g fill="none" stroke="currentColor" stroke-width="1.4" stroke-linecap="round" stroke-linejoin="round">
    <path d="M76 42 L124 42 L116 178 L104 178 L100 96 L96 178 L84 178 Z"/>
    <path d="M77 50 L123 50"/>
    <path d="M100 50 L100 90"/>
    <path d="M86 160 L114 160"/>
  </g>
  <path d="M87 164 L87 176 M93 164 L93 176 M107 164 L107 176 M113 164 L113 176" fill="none" stroke="#C4553B" stroke-width="1.2" stroke-linecap="round"/>
  <text x="100" y="156" fill="#8FB3C7" font-size="8" text-anchor="middle" font-family="monospace">cuff</text>
  <rect x="128" y="126" width="46" height="46" fill="none" stroke="#8FB3C7" stroke-width="1" stroke-dasharray="3 4" opacity="0.7"/>
  <line x1="148" y1="130" x2="148" y2="168" fill="none" stroke="#C4553B" stroke-width="1.8" stroke-linecap="round"/>
  <line x1="152" y1="130" x2="152" y2="168" fill="none" stroke="#C4553B" stroke-width="1.2" stroke-linecap="round"/>
  <path d="M136 134 L144 134 M136 144 L144 144 M136 154 L144 154 M136 164 L144 164" fill="none" stroke="#8FB3C7" stroke-width="1" opacity="0.6"/>
  <text x="151" y="124" fill="#8FB3C7" font-size="8" text-anchor="middle" font-family="monospace">selvedge</text>
</svg>
