<svg viewBox="0 0 200 200" xmlns="http://www.w3.org/2000/svg" preserveAspectRatio="xMidYMid meet" aria-hidden="true">
  <!-- service-boot: lace-up work boot with a toe cap, six lacing eyelets, and a welted lug sole -->
  <g fill="none" stroke="currentColor" stroke-width="1.4" stroke-linecap="round" stroke-linejoin="round">
    <path d="M46 140 L46 76 Q50 66 64 63 Q80 60 92 62 L96 74 L94 100 Q100 104 106 100 L108 74 L110 62 Q128 60 142 66 Q156 74 162 88 Q166 98 166 108 Q164 120 156 130 Q150 138 152 140 Z"/>
    <path d="M44 140 L44 150 L166 150 L164 140 Z"/>
  </g>
  <line x1="40" y1="150" x2="176" y2="150" fill="none" stroke="#8FB3C7" stroke-width="1" stroke-dasharray="3 4" opacity="0.7"/>
  <path d="M52 150 L55 145 L58 150 M68 150 L71 145 L74 150 M84 150 L87 145 L90 150 M100 150 L103 145 L106 150 M116 150 L119 145 L122 150 M132 150 L135 145 L138 150 M148 150 L151 145 L154 150" fill="none" stroke="#C4553B" stroke-width="1.4" stroke-linecap="round"/>
  <path d="M96 74 L94 100 M108 74 L106 100" fill="none" stroke="#C4553B" stroke-width="1.2"/>
  <circle cx="94" cy="68" r="1.5" fill="none" stroke="#C4553B" stroke-width="1.2"/>
  <circle cx="108" cy="68" r="1.5" fill="none" stroke="#C4553B" stroke-width="1.2"/>
  <circle cx="93" cy="78" r="1.5" fill="none" stroke="#C4553B" stroke-width="1.2"/>
  <circle cx="109" cy="78" r="1.5" fill="none" stroke="#C4553B" stroke-width="1.2"/>
  <circle cx="93" cy="88" r="1.5" fill="none" stroke="#C4553B" stroke-width="1.2"/>
  <circle cx="109" cy="88" r="1.5" fill="none" stroke="#C4553B" stroke-width="1.2"/>
  <path d="M94 68 L108 68 M93 78 L109 78 M93 88 L109 88" fill="none" stroke="#C4553B" stroke-width="1.2" stroke-linecap="round"/>
  <path d="M134 92 Q148 96 156 112 Q158 119 155 126" fill="none" stroke="#C4553B" stroke-width="1.7" stroke-linecap="round"/>
  <text x="150" y="88" fill="#8FB3C7" font-size="7" text-anchor="middle" font-family="monospace">toe cap</text>
  <text x="100" y="163" fill="#8FB3C7" font-size="8" text-anchor="middle" font-family="monospace">lug sole</text>
</svg>
